<svg width="230" height="56.99999999999999" xmlns="http://www.w3.org/2000/svg">

 <g>
  <title>background</title>
  <rect fill="none" id="canvas_background" height="402" width="582" y="-1" x="-1"/>
 </g>
 <g>
  <title>Layer 1</title>
  <g id="svg_1">
   <path id="svg_2" d="m95.221,35.805c2.159,0 3.428,-1.893 3.428,-4.146c0,-2.284 -1.208,-4.175 -3.428,-4.175c-2.314,0 -3.424,1.891 -3.424,4.175c0,2.253 1.273,4.146 3.424,4.146m0,3.819c-5.169,0 -8.871,-3.105 -8.871,-7.965c0,-4.8 3.835,-7.995 8.871,-7.995c5.037,0 8.874,3.175 8.874,7.995c0,4.86 -3.733,7.965 -8.874,7.965z" fill="#ffffff"/>
   <path id="svg_3" d="m158.874,31.663c0,-2.04 -1.163,-3.854 -3.191,-3.854c-1.784,0 -3.222,1.525 -3.222,3.854c0,2.26 1.177,3.868 3.222,3.868c1.844,0 3.191,-1.533 3.191,-3.868m-11.632,7.635l0,-21.527l5.301,0l0,7.377l0.06,0c0.373,-0.234 2.087,-1.466 4.608,-1.466c4.128,0 7.162,3.319 7.162,7.709c0,5.486 -3.364,8.248 -7.195,8.248c-2.897,0 -4.369,-1.349 -4.731,-1.739l-0.083,0l-0.077,1.398l-5.045,0z" fill="#ffffff"/>
   <path id="svg_4" d="m121.42,16.322c-1.637,0 -2.982,1.346 -2.982,2.981c0,1.638 1.346,2.983 2.982,2.983c1.638,0 2.982,-1.345 2.982,-2.983c0,-1.635 -1.344,-2.981 -2.982,-2.981m-2.661,7.731l5.322,0l0,15.28l-5.322,0l0,-15.28z" fill="#ffffff"/>
   <path id="svg_5" d="m187.067,39.311l5.165,0l0,-7.886c0,-1.849 1.226,-3.113 2.791,-3.113c1.79,0 2.806,1.164 2.806,3.113l0,7.886l5.167,0l0,-9.192c0,-3.459 -2.228,-6.421 -6.314,-6.421c-2.731,0 -4.15,1.483 -4.799,2.067l-0.109,0l-0.052,-1.691l-4.654,0l0,15.237" fill="#ffffff"/>
   <polyline id="svg_6" points="206.26,39.313 211.555,39.313 211.555,32.244 211.611,32.244 216.316,39.313 222.21,39.313 216.532,31.221 222.064,24.065 216.178,24.065 211.611,30.359 211.555,30.359 211.555,17.789 206.26,17.789 206.26,39.313" fill="#ffffff"/>
   <path id="svg_7" d="m84.998,24.278c-0.399,-0.11 -1.856,-0.611 -3.789,-0.611c-4.785,0 -8.371,2.995 -8.371,7.981c0,4.533 3.221,7.979 8.157,7.979c2.102,0 3.65,-0.561 4.003,-0.665l-0.259,-4.452c-0.41,0.186 -1.468,0.79 -2.689,0.79c-2.143,0 -3.708,-1.517 -3.708,-3.652c0,-2.241 1.675,-3.686 3.77,-3.686c1.181,0 2.234,0.549 2.628,0.744l0.258,-4.428" fill="#ffffff"/>
   <path id="svg_8" d="m132.081,31.523c0,2.524 1.41,4.102 3.234,4.102c1.653,0 3.264,-1.548 3.264,-3.895c0,-2.365 -1.428,-3.984 -3.264,-3.984c-1.899,0.001 -3.234,1.696 -3.234,3.777m11.734,-7.479l0,15.266l-5.157,0l-0.077,-1.539l-0.112,0c-0.572,0.516 -1.763,1.876 -5.09,1.876c-3.688,0 -6.919,-3.206 -6.919,-7.984c0,-4.432 2.865,-7.973 7.26,-7.973c2.989,0 4.21,1.317 4.667,1.735l0.138,0l0.052,-1.381l5.238,0z" fill="#ffffff"/>
   <path id="svg_9" d="m171.896,31.514c0,2.525 1.409,4.104 3.234,4.104c1.652,0 3.264,-1.549 3.264,-3.896c0,-2.365 -1.429,-3.983 -3.264,-3.983c-1.901,0 -3.234,1.695 -3.234,3.775m11.735,-7.477l0,15.267l-5.159,0l-0.077,-1.541l-0.11,0c-0.572,0.516 -1.765,1.879 -5.09,1.879c-3.689,0 -6.92,-3.208 -6.92,-7.985c0,-4.435 2.865,-7.975 7.26,-7.975c2.99,0 4.209,1.318 4.668,1.736l0.137,0l0.052,-1.381l5.239,0z" fill="#ffffff"/>
   <path id="svg_10" d="m55.793,38.745c1.484,0.449 3.741,0.861 6.134,0.861c4.532,0 9.053,-1.605 9.053,-6.58c0,-6.83 -9.415,-5.884 -9.415,-8.606c0,-1.392 1.447,-1.693 2.865,-1.693c1.968,0 4.458,0.945 5.011,1.169l0.427,-4.704c-1.374,-0.467 -3.458,-0.734 -5.418,-0.734c-4.475,0 -8.888,1.749 -8.888,6.18c0,6.709 9.389,5.311 9.389,8.83c0,1.355 -1.35,1.869 -3.076,1.869c-2.37,0 -4.599,-1.186 -5.563,-1.614l-0.519,5.022" fill="#ffffff"/>
   <path id="svg_11" d="m116.184,35.149c-0.262,0.072 -0.978,0.256 -1.47,0.256c-1.076,0 -2.252,-0.504 -2.252,-2.368l0,-5.161l3.337,0l0,-3.837l-3.337,0l0,-4.917l-5.312,0l0,4.917l-2.322,0l0,3.837l2.322,0l0,6.038c0,3.322 1.542,5.702 5.471,5.702c1.141,0 2.188,-0.152 2.907,-0.289l0.656,-4.178" fill="#ffffff"/>
   <path id="svg_12" d="m37.048,29.075c0.134,6.593 -5.825,11.571 -10.805,11.571l-12.31,0l-7.723,7.694l19.899,0c6.353,0 12.447,-5.715 12.447,-12.538c0,-2.004 -0.242,-4.614 -1.507,-6.593l0,-0.134m-2.113,4.857c0.768,-1.372 1.145,-2.88 1.238,-4.347l-5.585,0c0,1.36 -0.227,2.84 -0.738,4.347l5.085,0zm-5.449,0.862c-0.634,1.613 -2.14,3.711 -3.605,4.856c2.837,0 6.08,-1.238 8.45,-4.856l-4.845,0zm-0.634,-0.862c0.499,-1.372 0.727,-2.88 0.862,-4.347l-8.45,0c0.135,1.467 0.363,2.975 0.861,4.347l6.727,0zm-7.694,0c-0.498,-1.507 -0.768,-2.986 -0.768,-4.347l-5.583,0c0.134,1.467 0.498,2.975 1.236,4.347l5.115,0zm4.345,4.844c1.103,-0.997 2.341,-2.61 2.973,-3.982l-5.974,0c0.634,1.372 1.871,2.985 3.001,3.982zm-8.961,-3.982c2.475,3.618 5.717,4.856 8.598,4.856c-1.509,-1.146 -3.108,-3.243 -3.621,-4.856l-4.977,0zm13.308,-10.429c0.511,1.332 0.738,2.839 0.738,4.345l5.585,0c-0.093,-1.506 -0.471,-3.013 -1.238,-4.345l-5.085,0zm4.481,-1.01c-2.37,-3.471 -5.612,-4.843 -8.45,-4.843c1.465,1.104 2.971,3.203 3.605,4.843l4.845,0zm-12.206,1.01c-0.498,1.332 -0.726,2.839 -0.861,4.345l8.45,0c-0.135,-1.506 -0.364,-3.013 -0.862,-4.345l-6.727,0zm-6.081,0c-0.738,1.332 -1.103,2.839 -1.236,4.345l5.583,0c0,-1.506 0.27,-3.013 0.768,-4.345l-5.115,0zm9.459,-4.885c-1.13,0.997 -2.367,2.503 -3,3.875l5.974,0c-0.633,-1.372 -1.871,-2.878 -2.974,-3.875zm-3.983,3.875c0.513,-1.641 2.112,-3.74 3.621,-4.843c-2.881,0 -6.124,1.372 -8.598,4.843l4.977,0zm-7.588,5.584c-1.237,-1.964 -1.508,-4.574 -1.508,-6.579c0,-6.823 6.096,-12.58 12.445,-12.58l19.902,0l-7.724,7.789l-12.311,0c-4.95,0 -10.94,5.02 -10.804,11.37z" fill="#ffffff"/>
  </g>
 </g>
</svg>