<?xml version="1.0" encoding="UTF-8" standalone="no"?>
<!-- Created with Inkscape (http://www.inkscape.org/) -->
<svg xmlns:dc="http://purl.org/dc/elements/1.1/" xmlns:cc="http://creativecommons.org/ns#" xmlns:rdf="http://www.w3.org/1999/02/22-rdf-syntax-ns#" xmlns:svg="http://www.w3.org/2000/svg" xmlns="http://www.w3.org/2000/svg" xmlns:sodipodi="http://sodipodi.sourceforge.net/DTD/sodipodi-0.dtd" xmlns:inkscape="http://www.inkscape.org/namespaces/inkscape" width="1000.0002" height="178.53165" id="svg3392" version="1.1" inkscape:version="0.48.5 r10040" sodipodi:docname="New document 4">
  <defs id="defs3394"/>
  <sodipodi:namedview id="base" pagecolor="#ffffff" bordercolor="#666666" borderopacity="1.0" inkscape:pageopacity="0.0" inkscape:pageshadow="2" inkscape:zoom="0.79369974" inkscape:cx="491.90215" inkscape:cy="-146.07735" inkscape:document-units="px" inkscape:current-layer="layer1" showgrid="false" fit-margin-top="0" fit-margin-left="0" fit-margin-right="0" fit-margin-bottom="0" inkscape:window-width="1025" inkscape:window-height="1018" inkscape:window-x="886" inkscape:window-y="-1" inkscape:window-maximized="0"/>
  <metadata id="metadata3397">
    <rdf:RDF>
      <cc:Work rdf:about="">
        <dc:format>image/svg+xml</dc:format>
        <dc:type rdf:resource="http://purl.org/dc/dcmitype/StillImage"/>
        <dc:title/>
      </cc:Work>
    </rdf:RDF>
  </metadata>
  <g inkscape:label="Layer 1" inkscape:groupmode="layer" id="layer1" transform="translate(145.71439,-225.95351)">
    <path d="m 266.38551,364.12145 c -23.94062,0 -41.08026,-14.3752 -41.08026,-36.87398 0,-22.21975 17.76176,-37.01073 41.08026,-37.01073 23.31792,0 41.07655,14.69713 41.07655,37.01073 0,22.49878 -17.28505,36.87398 -41.07655,36.87398 z m 0,-17.68281 c 9.98686,0 15.86183,-8.75193 15.86183,-19.19117 0,-10.57605 -5.59281,-19.33105 -15.86183,-19.33105 -10.72451,0 -15.86241,8.755 -15.86241,19.33105 0,10.43924 5.89052,19.19117 15.86241,19.19117" style="fill:#ed192d;fill-opacity:1;fill-rule:nonzero;stroke:none" id="path3135" inkscape:connector-curvature="0"/>
    <path d="m 507.22345,362.61309 0,-99.66688 24.53663,0 0,34.15496 0.26749,0 c 1.73396,-1.0802 9.67047,-6.78242 21.34222,-6.78242 19.11723,0 33.15677,15.36155 33.15677,35.69067 0,25.3906 -15.57466,38.18474 -33.30595,38.18474 -13.4119,0 -20.22348,-6.24232 -21.90153,-8.06331 l -0.3977,0 -0.36058,6.48224 -23.33718,0 z M 561.0761,327.2655 c 0,-9.44364 -5.3946,-17.84378 -14.7792,-17.84378 -8.26592,0 -14.9159,7.05893 -14.9159,17.84378 0,10.46657 5.44428,17.90776 14.9159,17.90776 8.53936,0 14.7792,-7.08939 14.7792,-17.90776" style="fill:#ed192d;fill-opacity:1;fill-rule:nonzero;stroke:none" id="path3137" inkscape:connector-curvature="0"/>
    <path d="m 375.34749,292.03969 24.63798,0 0,70.73124 -24.63798,0 0,-70.73124 z m 12.32055,-35.79754 c -7.58347,0 -13.81029,6.22735 -13.81029,13.81088 0,7.57729 6.22682,13.80464 13.81029,13.80464 7.58041,0 13.80776,-6.22735 13.80776,-13.80464 0,-7.58353 -6.22735,-13.81088 -13.80776,-13.81088" style="fill:#ed192d;fill-opacity:1;fill-rule:nonzero;stroke:none" id="path3139" inkscape:connector-curvature="0"/>
    <path d="m 691.59653,362.67401 23.91517,0 0,-36.50981 c 0,-8.55804 5.66804,-14.41498 12.91468,-14.41498 8.29078,0 12.98927,5.38648 12.98927,14.41498 l 0,36.50981 23.92141,0 0,-42.56135 c 0,-16.01036 -10.31061,-29.72427 -29.23518,-29.72427 -12.63506,0 -19.21668,6.86438 -22.20607,9.57167 l -0.51613,0 -0.23626,-7.83276 -21.54725,0 0,70.54671" style="fill:#ed192d;fill-opacity:1;fill-rule:nonzero;stroke:none" id="path3141" inkscape:connector-curvature="0"/>
    <path d="m 780.45186,362.68267 24.51178,0 0,-32.71925 0.26749,0 21.77726,32.71925 27.27742,0 -26.27681,-37.46876 25.61808,-33.12013 -27.25883,0 -21.13712,29.14191 -0.26749,0 0,-58.205 -24.51178,0 0,99.65198" style="fill:#ed192d;fill-opacity:1;fill-rule:nonzero;stroke:none" id="path3143" inkscape:connector-curvature="0"/>
    <path d="m 219.04178,293.07694 c -1.84208,-0.51258 -8.58779,-2.82777 -17.53734,-2.82777 -22.15264,0 -38.75217,13.86185 -38.75217,36.95293 0,20.98111 14.90593,36.94357 37.75963,36.94357 9.73263,0 16.89726,-2.5947 18.52988,-3.08631 l -1.20193,-20.60509 c -1.8875,0.85266 -6.79733,3.65687 -12.44487,3.65687 -9.92034,0 -17.1701,-7.02228 -17.1701,-16.90904 0,-10.38462 7.75628,-17.07006 17.45226,-17.07006 5.47167,0 10.34544,2.5432 12.16271,3.44748 l 1.20193,-20.50258" style="fill:#ed192d;fill-opacity:1;fill-rule:nonzero;stroke:none" id="path3145" inkscape:connector-curvature="0"/>
    <path d="m 491.35661,291.99368 0,70.68033 -23.88035,0 -0.36411,-7.13169 -0.51612,0 c -2.64631,2.3853 -8.15716,8.68854 -23.5609,8.68854 -17.07312,0 -32.03379,-14.8426 -32.03379,-36.96536 0,-20.52308 13.26147,-36.91629 33.61174,-36.91629 13.83822,0 19.48888,6.09626 21.60693,8.04156 l 0.63702,0 0.23685,-6.39709 24.26261,0 z m -54.32995,34.62231 c 0,11.68665 6.52448,18.99108 14.97929,18.99108 7.64693,0 15.10608,-7.16209 15.10608,-18.02895 0,-10.95206 -6.60897,-18.44168 -15.10608,-18.44168 -8.80037,0 -14.97929,7.84454 -14.97929,17.47955" style="fill:#ed192d;fill-opacity:1;fill-rule:nonzero;stroke:none" id="path3147" inkscape:connector-curvature="0"/>
    <path d="m 675.68621,291.96074 0,70.67656 -23.88412,0 -0.36058,-7.12792 -0.51553,0 c -2.64761,2.38466 -8.16022,8.6879 -23.56095,8.6879 -17.07873,0 -32.0381,-14.8426 -32.0381,-36.96536 0,-20.52615 13.26271,-36.91629 33.61675,-36.91629 13.83451,0 19.48388,6.09691 21.60316,8.03908 l 0.64015,0 0.23626,-6.39397 24.2632,0 z m -54.33119,34.61925 c 0,11.68906 6.52572,18.99043 14.97181,18.99043 7.65064,0 15.1148,-7.1615 15.1148,-18.02836 0,-10.94953 -6.61274,-18.44168 -15.1148,-18.44168 -8.79412,0 -14.97181,7.84454 -14.97181,17.47961" style="fill:#ed192d;fill-opacity:1;fill-rule:nonzero;stroke:none" id="path3149" inkscape:connector-curvature="0"/>
    <path d="m 83.835894,360.05192 c 6.87374,2.08199 17.321756,3.98752 28.398006,3.98752 20.98176,0 41.92121,-7.43188 41.92121,-30.46204 0,-31.61489 -43.59301,-27.24205 -43.59301,-39.84163 0,-6.44618 6.70347,-7.83894 13.27078,-7.83894 9.1068,0 20.63249,4.37037 23.19366,5.41133 l 1.9813,-21.77408 c -6.36039,-2.16654 -16.01654,-3.39899 -25.08416,-3.39899 -20.71763,0 -41.156156,8.09064 -41.156156,28.60812 0,31.063 43.474936,24.58389 43.474936,40.88266 0,6.26653 -6.26094,8.65183 -14.24782,8.65183 -10.97374,0 -21.288126,-5.49276 -25.752296,-7.47412 l -2.40645,23.24834" style="fill:#ed192d;fill-opacity:1;fill-rule:nonzero;stroke:none" id="path3151" inkscape:connector-curvature="0"/>
    <path d="m 363.42163,343.40701 c -1.20511,0.33701 -4.5189,1.18643 -6.80104,1.18643 -4.98565,0 -10.42686,-2.33062 -10.42686,-10.96696 l 0,-23.8922 15.45535,0 0,-17.76482 -15.45535,0 0,-22.76291 -24.58701,0 0,22.76291 -10.75191,0 0,17.76482 10.75191,0 0,27.95555 c 0,15.37333 7.13169,26.39804 25.3272,26.39804 5.27712,0 10.12355,-0.71285 13.45602,-1.3474 l 3.03169,-19.33346" style="fill:#ed192d;fill-opacity:1;fill-rule:nonzero;stroke:none" id="path3153" inkscape:connector-curvature="0"/>
    <path d="m -109.96032,314.65654 c -5.72956,-9.09184 -6.97632,-21.17872 -6.97632,-30.45891 0,-31.58196 28.219078,-58.24412 57.622061,-58.24412 l 92.125653,0 -35.7540697,36.06668 -56.9968233,0 c -22.923871,0 -50.642621,23.23649 -50.020501,52.63635 z m 73.693934,-21.17872 c 2.36727,6.16649 3.4232,13.14282 3.4232,20.11973 l 25.8517503,0 c -0.43364,-6.97691 -2.17832,-13.95324 -5.7320903,-20.11973 l -23.54286,0 z m 20.74183,-4.67362 c -10.96449,-16.0688 -25.97671,-22.42301 -39.119464,-22.42301 6.788607,5.1075 13.767994,14.82393 16.693334,22.42301 l 22.42613,0 z m -56.499021,4.67362 c -2.303228,6.16649 -3.362281,13.14282 -3.987521,20.11973 l 39.119472,0 c -0.62212,-6.97691 -1.68117,-13.95324 -3.9844,-20.11973 l -31.147551,0 z m -28.156273,0 c -3.42568,6.16649 -5.10685,13.14282 -5.72897,20.11973 l 25.84928,0 c 0,-6.97691 1.247356,-13.95324 3.550643,-20.11973 l -23.670953,0 z m 43.790616,-22.61125 c -5.231755,4.60964 -10.961309,11.5859 -13.889776,17.93763 l 27.657824,0 c -2.92788,-6.35173 -8.660552,-13.32799 -13.768048,-17.93763 z m -18.438552,17.93763 c 2.370395,-7.59908 9.78053,-17.31551 16.760563,-22.42301 -13.334237,0 -28.347111,6.35421 -39.806218,22.42301 l 23.045655,0 z m 62.10426,48.96458 c 3.5537703,-6.3548 5.2982703,-13.33171 5.7320903,-20.12285 l -25.8517503,0 c 0,6.29393 -1.05593,13.14594 -3.4232,20.12285 l 23.54286,0 z m -25.22716,3.9844 c -2.92534,7.47724 -9.904727,17.19431 -16.693334,22.48634 13.142754,0 28.154974,-5.72896 39.119464,-22.48634 l -22.42613,0 z m -2.92534,-3.9844 c 2.30323,-6.3548 3.36228,-13.33171 3.9844,-20.12285 l -39.119472,0 c 0.62524,6.79114 1.684293,13.76805 3.987521,20.12285 l 31.147551,0 z m -35.632871,0 c -2.303287,-6.97691 -3.550643,-13.82892 -3.550643,-20.12285 l -25.84928,0 c 0.62212,6.79114 2.30329,13.76805 5.72897,20.12285 l 23.670953,0 z m 20.119663,22.42295 c 5.107496,-4.60964 10.840168,-12.08435 13.768048,-18.43855 l -27.657824,0 c 2.928467,6.3542 8.658021,13.82891 13.889776,18.43855 z m -41.484207,-18.43855 c 11.459107,16.75738 26.471981,22.48634 39.806218,22.48634 -6.980033,-5.29203 -14.390168,-15.0091 -16.760563,-22.48634 l -23.045655,0 z m 94.9304453,-26.47452 c 0.62524,30.52543 -26.9717203,53.57362 -50.0199133,53.57362 l -56.997411,0 -35.75407,35.63287 92.129365,0 c 29.402389,0 57.6189393,-26.48011 57.6189393,-58.05894 0,-9.28267 -1.11991,-21.36702 -6.97691,-30.52231 l 0,-0.62524" style="fill:#ed192d;fill-opacity:1;fill-rule:nonzero;stroke:none" id="path3155" inkscape:connector-curvature="0"/>
  </g>
</svg>